<mxfile host="app.diagrams.net" modified="2023-05-30T12:29:27.979Z" agent="Mozilla/5.0 (Windows NT 10.0; Win64; x64) AppleWebKit/537.36 (KHTML, like Gecko) Chrome/113.0.0.0 Safari/537.36" etag="zIcqFyztUZhe1rJyK8wS" version="21.3.5" type="device">
  <diagram name="Page-1" id="SMfYlNHpg3Qnstrv-gT0">
    <mxGraphModel dx="1635" dy="684" grid="1" gridSize="10" guides="1" tooltips="1" connect="1" arrows="1" fold="1" page="0" pageScale="1" pageWidth="827" pageHeight="1169" math="0" shadow="0">
      <root>
        <mxCell id="0" />
        <mxCell id="1" parent="0" />
        <mxCell id="NWbZZgmx0wOtJZBRiWbx-14" value="" style="shape=partialRectangle;whiteSpace=wrap;html=1;bottom=1;right=1;left=1;top=0;fillColor=none;routingCenterX=-0.5;rotation=90;" vertex="1" parent="1">
          <mxGeometry x="164.64" y="160.74" width="30.71" height="9.26" as="geometry" />
        </mxCell>
        <mxCell id="NWbZZgmx0wOtJZBRiWbx-1" value="" style="endArrow=none;html=1;rounded=0;" edge="1" parent="1">
          <mxGeometry width="50" height="50" relative="1" as="geometry">
            <mxPoint x="200" y="600" as="sourcePoint" />
            <mxPoint x="200" y="80" as="targetPoint" />
          </mxGeometry>
        </mxCell>
        <mxCell id="NWbZZgmx0wOtJZBRiWbx-2" value="&lt;font style=&quot;font-size: 18px;&quot;&gt;AP&lt;/font&gt;" style="text;html=1;align=center;verticalAlign=middle;resizable=0;points=[];autosize=1;strokeColor=none;fillColor=none;" vertex="1" parent="1">
          <mxGeometry x="175" y="25" width="50" height="40" as="geometry" />
        </mxCell>
        <mxCell id="NWbZZgmx0wOtJZBRiWbx-4" value="&lt;font style=&quot;font-size: 18px;&quot;&gt;Station&lt;/font&gt;" style="text;html=1;align=center;verticalAlign=middle;resizable=0;points=[];autosize=1;strokeColor=none;fillColor=none;" vertex="1" parent="1">
          <mxGeometry x="600" y="25" width="80" height="40" as="geometry" />
        </mxCell>
        <mxCell id="NWbZZgmx0wOtJZBRiWbx-5" value="" style="endArrow=none;html=1;rounded=0;" edge="1" parent="1">
          <mxGeometry width="50" height="50" relative="1" as="geometry">
            <mxPoint x="640" y="230" as="sourcePoint" />
            <mxPoint x="640" y="80" as="targetPoint" />
          </mxGeometry>
        </mxCell>
        <mxCell id="NWbZZgmx0wOtJZBRiWbx-6" value="&lt;h1 style=&quot;font-size: 13px; line-height: 70%;&quot;&gt;&lt;span style=&quot;font-weight: normal;&quot;&gt;&lt;font style=&quot;font-size: 13px;&quot;&gt;Configuration :&lt;/font&gt;SSID : &quot;APfipy&quot;&lt;/span&gt;&lt;/h1&gt;&lt;p style=&quot;font-size: 13px; line-height: 70%;&quot;&gt;&lt;font style=&quot;font-size: 13px;&quot;&gt;IP : 192.168.4.1&lt;/font&gt;&lt;/p&gt;" style="text;html=1;strokeColor=none;fillColor=none;spacing=5;spacingTop=-20;whiteSpace=wrap;overflow=hidden;rounded=0;" vertex="1" parent="1">
          <mxGeometry x="20" y="80" width="190" height="40" as="geometry" />
        </mxCell>
        <mxCell id="NWbZZgmx0wOtJZBRiWbx-7" value="Ouverture socket" style="text;html=1;strokeColor=none;fillColor=none;align=center;verticalAlign=middle;whiteSpace=wrap;rounded=0;" vertex="1" parent="1">
          <mxGeometry x="80" y="120" width="120" height="20" as="geometry" />
        </mxCell>
        <mxCell id="NWbZZgmx0wOtJZBRiWbx-8" value="socket.recv()" style="text;html=1;strokeColor=none;fillColor=none;align=center;verticalAlign=middle;whiteSpace=wrap;rounded=0;" vertex="1" parent="1">
          <mxGeometry x="90" y="140" width="80" height="30" as="geometry" />
        </mxCell>
        <mxCell id="NWbZZgmx0wOtJZBRiWbx-9" value="" style="endArrow=classic;html=1;rounded=0;exitX=0;exitY=0.5;exitDx=0;exitDy=0;" edge="1" parent="1" source="NWbZZgmx0wOtJZBRiWbx-11">
          <mxGeometry width="50" height="50" relative="1" as="geometry">
            <mxPoint x="640" y="150" as="sourcePoint" />
            <mxPoint x="200" y="180" as="targetPoint" />
          </mxGeometry>
        </mxCell>
        <mxCell id="NWbZZgmx0wOtJZBRiWbx-10" value="&lt;h1 style=&quot;font-size: 13px; line-height: 70%;&quot;&gt;&lt;span style=&quot;font-weight: normal;&quot;&gt;&lt;font style=&quot;font-size: 13px;&quot;&gt;Configuration :&lt;/font&gt;SSID : &quot;APfipy&quot;&lt;/span&gt;&lt;/h1&gt;&lt;p style=&quot;font-size: 13px; line-height: 70%;&quot;&gt;&lt;font style=&quot;font-size: 13px;&quot;&gt;IP : 192.168.4.1&lt;/font&gt;&lt;/p&gt;" style="text;html=1;strokeColor=none;fillColor=none;spacing=5;spacingTop=-20;whiteSpace=wrap;overflow=hidden;rounded=0;" vertex="1" parent="1">
          <mxGeometry x="650" y="80" width="190" height="40" as="geometry" />
        </mxCell>
        <mxCell id="NWbZZgmx0wOtJZBRiWbx-11" value="socket.send(&#39;1000 0000&#39;)" style="text;html=1;strokeColor=none;fillColor=none;align=center;verticalAlign=middle;whiteSpace=wrap;rounded=0;" vertex="1" parent="1">
          <mxGeometry x="640" y="140" width="160" height="30" as="geometry" />
        </mxCell>
        <mxCell id="NWbZZgmx0wOtJZBRiWbx-12" value="Ouverture socket" style="text;html=1;strokeColor=none;fillColor=none;align=center;verticalAlign=middle;whiteSpace=wrap;rounded=0;" vertex="1" parent="1">
          <mxGeometry x="650" y="120" width="120" height="20" as="geometry" />
        </mxCell>
        <mxCell id="NWbZZgmx0wOtJZBRiWbx-16" value="requète horloge (en-tête : &#39;1000 0000&#39;)" style="text;html=1;strokeColor=none;fillColor=none;align=center;verticalAlign=middle;whiteSpace=wrap;rounded=0;rotation=357;" vertex="1" parent="1">
          <mxGeometry x="294" y="140" width="240" height="30" as="geometry" />
        </mxCell>
        <mxCell id="NWbZZgmx0wOtJZBRiWbx-17" value="socket.recv()" style="text;html=1;strokeColor=none;fillColor=none;align=center;verticalAlign=middle;whiteSpace=wrap;rounded=0;" vertex="1" parent="1">
          <mxGeometry x="670" y="165" width="80" height="30" as="geometry" />
        </mxCell>
        <mxCell id="NWbZZgmx0wOtJZBRiWbx-18" value="" style="shape=partialRectangle;whiteSpace=wrap;html=1;bottom=1;right=1;left=1;top=0;fillColor=none;routingCenterX=-0.5;rotation=-90;" vertex="1" parent="1">
          <mxGeometry x="635" y="195" width="40.71" height="10" as="geometry" />
        </mxCell>
        <mxCell id="NWbZZgmx0wOtJZBRiWbx-20" value="" style="endArrow=classic;html=1;rounded=0;" edge="1" parent="1">
          <mxGeometry width="50" height="50" relative="1" as="geometry">
            <mxPoint x="200" y="195" as="sourcePoint" />
            <mxPoint x="640" y="220" as="targetPoint" />
          </mxGeometry>
        </mxCell>
        <mxCell id="NWbZZgmx0wOtJZBRiWbx-21" value="socket.send(&#39;1010 0000&#39; + donnee-horloge)" style="text;html=1;strokeColor=none;fillColor=none;align=center;verticalAlign=middle;whiteSpace=wrap;rounded=0;" vertex="1" parent="1">
          <mxGeometry x="-50" y="185" width="250" height="30" as="geometry" />
        </mxCell>
        <mxCell id="NWbZZgmx0wOtJZBRiWbx-22" value="Réponse horloge (en-tête : &#39;1010 0000&#39;)" style="text;html=1;strokeColor=none;fillColor=none;align=center;verticalAlign=middle;whiteSpace=wrap;rounded=0;rotation=3;" vertex="1" parent="1">
          <mxGeometry x="320" y="185" width="240" height="30" as="geometry" />
        </mxCell>
        <mxCell id="NWbZZgmx0wOtJZBRiWbx-24" value="temps d&#39;attente bloquant d&#39;une réception (max 0.05 seconde)" style="text;html=1;strokeColor=none;fillColor=none;align=center;verticalAlign=middle;whiteSpace=wrap;rounded=0;" vertex="1" parent="1">
          <mxGeometry x="664" y="185" width="350" height="30" as="geometry" />
        </mxCell>
        <mxCell id="NWbZZgmx0wOtJZBRiWbx-25" value="" style="endArrow=none;dashed=1;html=1;rounded=0;" edge="1" parent="1">
          <mxGeometry width="50" height="50" relative="1" as="geometry">
            <mxPoint x="640" y="560" as="sourcePoint" />
            <mxPoint x="640" y="230" as="targetPoint" />
          </mxGeometry>
        </mxCell>
        <mxCell id="NWbZZgmx0wOtJZBRiWbx-26" value="Intervalle de 5 secondes&amp;nbsp;" style="text;html=1;strokeColor=none;fillColor=none;align=center;verticalAlign=middle;whiteSpace=wrap;rounded=0;" vertex="1" parent="1">
          <mxGeometry x="650" y="230" width="140" height="30" as="geometry" />
        </mxCell>
        <mxCell id="NWbZZgmx0wOtJZBRiWbx-27" value="" style="endArrow=none;html=1;rounded=0;exitX=0;exitY=0.75;exitDx=0;exitDy=0;" edge="1" parent="1" source="NWbZZgmx0wOtJZBRiWbx-38">
          <mxGeometry width="50" height="50" relative="1" as="geometry">
            <mxPoint x="640" y="360" as="sourcePoint" />
            <mxPoint x="640" y="270" as="targetPoint" />
          </mxGeometry>
        </mxCell>
        <mxCell id="NWbZZgmx0wOtJZBRiWbx-28" value="" style="shape=partialRectangle;whiteSpace=wrap;html=1;bottom=1;right=1;left=1;top=0;fillColor=none;routingCenterX=-0.5;rotation=90;" vertex="1" parent="1">
          <mxGeometry x="174.64" y="240.37" width="30.71" height="10" as="geometry" />
        </mxCell>
        <mxCell id="NWbZZgmx0wOtJZBRiWbx-29" value="socket.recv()" style="text;html=1;strokeColor=none;fillColor=none;align=center;verticalAlign=middle;whiteSpace=wrap;rounded=0;" vertex="1" parent="1">
          <mxGeometry x="100" y="220" width="80" height="30" as="geometry" />
        </mxCell>
        <mxCell id="NWbZZgmx0wOtJZBRiWbx-30" value="Traitement()&lt;br&gt;&lt;font style=&quot;font-size: 8px;&quot;&gt;envoie d&#39;une trame potentiel en fonction de la trame reçue&lt;br&gt;&lt;/font&gt;" style="text;html=1;strokeColor=none;fillColor=none;align=right;verticalAlign=middle;whiteSpace=wrap;rounded=0;" vertex="1" parent="1">
          <mxGeometry x="-60" y="270" width="250" height="30" as="geometry" />
        </mxCell>
        <mxCell id="NWbZZgmx0wOtJZBRiWbx-31" value="" style="shape=curlyBracket;whiteSpace=wrap;html=1;rounded=1;labelPosition=left;verticalLabelPosition=middle;align=right;verticalAlign=middle;" vertex="1" parent="1">
          <mxGeometry x="-50" y="230" width="20" height="70" as="geometry" />
        </mxCell>
        <mxCell id="NWbZZgmx0wOtJZBRiWbx-32" value="Boucle infinie" style="text;html=1;strokeColor=none;fillColor=none;align=center;verticalAlign=middle;whiteSpace=wrap;rounded=0;" vertex="1" parent="1">
          <mxGeometry x="-160" y="250" width="110" height="30" as="geometry" />
        </mxCell>
        <mxCell id="NWbZZgmx0wOtJZBRiWbx-33" value="Si trame à envoyer" style="text;html=1;strokeColor=none;fillColor=none;align=center;verticalAlign=middle;whiteSpace=wrap;rounded=0;" vertex="1" parent="1">
          <mxGeometry x="650" y="270" width="110" height="30" as="geometry" />
        </mxCell>
        <mxCell id="NWbZZgmx0wOtJZBRiWbx-34" value="socket.send(&#39;0000 0000&#39; + donnée à envoyer)" style="text;html=1;strokeColor=none;fillColor=none;align=center;verticalAlign=middle;whiteSpace=wrap;rounded=0;" vertex="1" parent="1">
          <mxGeometry x="647" y="290" width="260" height="30" as="geometry" />
        </mxCell>
        <mxCell id="NWbZZgmx0wOtJZBRiWbx-36" value="" style="endArrow=classic;html=1;rounded=0;exitX=0;exitY=0.5;exitDx=0;exitDy=0;" edge="1" parent="1">
          <mxGeometry width="50" height="50" relative="1" as="geometry">
            <mxPoint x="640" y="305" as="sourcePoint" />
            <mxPoint x="200" y="330" as="targetPoint" />
          </mxGeometry>
        </mxCell>
        <mxCell id="NWbZZgmx0wOtJZBRiWbx-37" value="data (en-tête : &#39;0000 0000&#39;)" style="text;html=1;strokeColor=none;fillColor=none;align=center;verticalAlign=middle;whiteSpace=wrap;rounded=0;rotation=357;" vertex="1" parent="1">
          <mxGeometry x="294" y="290" width="240" height="30" as="geometry" />
        </mxCell>
        <mxCell id="NWbZZgmx0wOtJZBRiWbx-38" value="Plus de trame à envoyer" style="text;html=1;strokeColor=none;fillColor=none;align=center;verticalAlign=middle;whiteSpace=wrap;rounded=0;" vertex="1" parent="1">
          <mxGeometry x="640" y="320" width="160" height="30" as="geometry" />
        </mxCell>
        <mxCell id="NWbZZgmx0wOtJZBRiWbx-39" value="Intervalle de 5 secondes - les temps rester éveillé" style="text;html=1;strokeColor=none;fillColor=none;align=center;verticalAlign=middle;whiteSpace=wrap;rounded=0;" vertex="1" parent="1">
          <mxGeometry x="650" y="360" width="280" height="30" as="geometry" />
        </mxCell>
        <mxCell id="NWbZZgmx0wOtJZBRiWbx-40" value="" style="endArrow=none;html=1;rounded=0;" edge="1" parent="1">
          <mxGeometry width="50" height="50" relative="1" as="geometry">
            <mxPoint x="640" y="430" as="sourcePoint" />
            <mxPoint x="640" y="390" as="targetPoint" />
          </mxGeometry>
        </mxCell>
        <mxCell id="NWbZZgmx0wOtJZBRiWbx-41" value="" style="shape=partialRectangle;whiteSpace=wrap;html=1;bottom=1;right=1;left=1;top=0;fillColor=none;routingCenterX=-0.5;rotation=90;" vertex="1" parent="1">
          <mxGeometry x="169.29" y="320.37" width="30.71" height="10" as="geometry" />
        </mxCell>
        <mxCell id="NWbZZgmx0wOtJZBRiWbx-42" value="socket.recv()" style="text;html=1;strokeColor=none;fillColor=none;align=center;verticalAlign=middle;whiteSpace=wrap;rounded=0;" vertex="1" parent="1">
          <mxGeometry x="94.65" y="300" width="80" height="30" as="geometry" />
        </mxCell>
        <mxCell id="NWbZZgmx0wOtJZBRiWbx-43" value="Traitement()&lt;font style=&quot;font-size: 8px;&quot;&gt;&lt;br&gt;&lt;/font&gt;" style="text;html=1;strokeColor=none;fillColor=none;align=right;verticalAlign=middle;whiteSpace=wrap;rounded=0;" vertex="1" parent="1">
          <mxGeometry x="-65.35" y="350" width="250" height="30" as="geometry" />
        </mxCell>
        <mxCell id="NWbZZgmx0wOtJZBRiWbx-46" value="" style="endArrow=none;html=1;rounded=0;" edge="1" parent="1">
          <mxGeometry width="50" height="50" relative="1" as="geometry">
            <mxPoint x="640" y="520" as="sourcePoint" />
            <mxPoint x="640" y="390" as="targetPoint" />
          </mxGeometry>
        </mxCell>
        <mxCell id="NWbZZgmx0wOtJZBRiWbx-51" value="Si trame à envoyer" style="text;html=1;strokeColor=none;fillColor=none;align=center;verticalAlign=middle;whiteSpace=wrap;rounded=0;" vertex="1" parent="1">
          <mxGeometry x="650" y="390" width="110" height="30" as="geometry" />
        </mxCell>
        <mxCell id="NWbZZgmx0wOtJZBRiWbx-52" value="socket.send(&#39;0000 0000&#39; + donnée à envoyer)" style="text;html=1;strokeColor=none;fillColor=none;align=center;verticalAlign=middle;whiteSpace=wrap;rounded=0;" vertex="1" parent="1">
          <mxGeometry x="647" y="410" width="260" height="30" as="geometry" />
        </mxCell>
        <mxCell id="NWbZZgmx0wOtJZBRiWbx-53" value="" style="endArrow=classic;html=1;rounded=0;exitX=0;exitY=0.5;exitDx=0;exitDy=0;" edge="1" parent="1">
          <mxGeometry width="50" height="50" relative="1" as="geometry">
            <mxPoint x="640" y="425" as="sourcePoint" />
            <mxPoint x="200" y="450" as="targetPoint" />
          </mxGeometry>
        </mxCell>
        <mxCell id="NWbZZgmx0wOtJZBRiWbx-54" value="data (en-tête : &#39;0000 0000&#39;)" style="text;html=1;strokeColor=none;fillColor=none;align=center;verticalAlign=middle;whiteSpace=wrap;rounded=0;rotation=357;" vertex="1" parent="1">
          <mxGeometry x="294" y="410" width="240" height="30" as="geometry" />
        </mxCell>
        <mxCell id="NWbZZgmx0wOtJZBRiWbx-55" value="Plus de trame à envoyer" style="text;html=1;strokeColor=none;fillColor=none;align=center;verticalAlign=middle;whiteSpace=wrap;rounded=0;" vertex="1" parent="1">
          <mxGeometry x="640" y="490" width="160" height="30" as="geometry" />
        </mxCell>
        <mxCell id="NWbZZgmx0wOtJZBRiWbx-56" value="Intervalle de 5 secondes - les temps rester éveillé" style="text;html=1;strokeColor=none;fillColor=none;align=center;verticalAlign=middle;whiteSpace=wrap;rounded=0;" vertex="1" parent="1">
          <mxGeometry x="647" y="530" width="280" height="30" as="geometry" />
        </mxCell>
        <mxCell id="NWbZZgmx0wOtJZBRiWbx-57" value="" style="endArrow=none;html=1;rounded=0;" edge="1" parent="1">
          <mxGeometry width="50" height="50" relative="1" as="geometry">
            <mxPoint x="640" y="600" as="sourcePoint" />
            <mxPoint x="640" y="560" as="targetPoint" />
          </mxGeometry>
        </mxCell>
        <mxCell id="NWbZZgmx0wOtJZBRiWbx-58" value="" style="shape=partialRectangle;whiteSpace=wrap;html=1;bottom=1;right=1;left=1;top=0;fillColor=none;routingCenterX=-0.5;rotation=90;" vertex="1" parent="1">
          <mxGeometry x="177.14" y="438.23" width="15" height="10" as="geometry" />
        </mxCell>
        <mxCell id="NWbZZgmx0wOtJZBRiWbx-59" value="socket.recv()" style="text;html=1;strokeColor=none;fillColor=none;align=center;verticalAlign=middle;whiteSpace=wrap;rounded=0;" vertex="1" parent="1">
          <mxGeometry x="94.65" y="420" width="80" height="30" as="geometry" />
        </mxCell>
        <mxCell id="NWbZZgmx0wOtJZBRiWbx-60" value="Traitement()&lt;font style=&quot;font-size: 8px;&quot;&gt;&lt;br&gt;&lt;/font&gt;" style="text;html=1;strokeColor=none;fillColor=none;align=right;verticalAlign=middle;whiteSpace=wrap;rounded=0;" vertex="1" parent="1">
          <mxGeometry x="80" y="450" width="110" height="20" as="geometry" />
        </mxCell>
        <mxCell id="NWbZZgmx0wOtJZBRiWbx-61" value="Boucle infinie" style="text;html=1;strokeColor=none;fillColor=none;align=center;verticalAlign=middle;whiteSpace=wrap;rounded=0;fontStyle=1" vertex="1" parent="1">
          <mxGeometry x="40" y="390" width="110" height="30" as="geometry" />
        </mxCell>
        <mxCell id="NWbZZgmx0wOtJZBRiWbx-63" value="socket.send(&#39;0000 0000&#39; + donnée à envoyer)" style="text;html=1;strokeColor=none;fillColor=none;align=center;verticalAlign=middle;whiteSpace=wrap;rounded=0;" vertex="1" parent="1">
          <mxGeometry x="647" y="440" width="260" height="30" as="geometry" />
        </mxCell>
        <mxCell id="NWbZZgmx0wOtJZBRiWbx-64" value="" style="endArrow=classic;html=1;rounded=0;exitX=0;exitY=0.5;exitDx=0;exitDy=0;" edge="1" parent="1">
          <mxGeometry width="50" height="50" relative="1" as="geometry">
            <mxPoint x="640" y="455" as="sourcePoint" />
            <mxPoint x="200" y="480" as="targetPoint" />
          </mxGeometry>
        </mxCell>
        <mxCell id="NWbZZgmx0wOtJZBRiWbx-65" value="data (en-tête : &#39;0000 0000&#39;)" style="text;html=1;strokeColor=none;fillColor=none;align=center;verticalAlign=middle;whiteSpace=wrap;rounded=0;rotation=357;" vertex="1" parent="1">
          <mxGeometry x="294" y="440" width="240" height="30" as="geometry" />
        </mxCell>
        <mxCell id="NWbZZgmx0wOtJZBRiWbx-69" value="" style="shape=partialRectangle;whiteSpace=wrap;html=1;bottom=1;right=1;left=1;top=0;fillColor=none;routingCenterX=-0.5;rotation=90;" vertex="1" parent="1">
          <mxGeometry x="177.14" y="478.23" width="15" height="10" as="geometry" />
        </mxCell>
        <mxCell id="NWbZZgmx0wOtJZBRiWbx-70" value="socket.recv()" style="text;html=1;strokeColor=none;fillColor=none;align=center;verticalAlign=middle;whiteSpace=wrap;rounded=0;" vertex="1" parent="1">
          <mxGeometry x="94.65" y="460" width="80" height="30" as="geometry" />
        </mxCell>
        <mxCell id="NWbZZgmx0wOtJZBRiWbx-71" value="Traitement()&lt;font style=&quot;font-size: 8px;&quot;&gt;&lt;br&gt;&lt;/font&gt;" style="text;html=1;strokeColor=none;fillColor=none;align=right;verticalAlign=middle;whiteSpace=wrap;rounded=0;" vertex="1" parent="1">
          <mxGeometry x="80" y="490" width="110" height="20" as="geometry" />
        </mxCell>
        <mxCell id="NWbZZgmx0wOtJZBRiWbx-72" value="Aucune trame à envoyer" style="text;html=1;strokeColor=none;fillColor=none;align=center;verticalAlign=middle;whiteSpace=wrap;rounded=0;" vertex="1" parent="1">
          <mxGeometry x="647" y="569.5" width="160" height="30" as="geometry" />
        </mxCell>
      </root>
    </mxGraphModel>
  </diagram>
</mxfile>
